<?xml version="1.0" encoding="utf-8"?>
<!-- Generator: Adobe Illustrator 18.1.0, SVG Export Plug-In . SVG Version: 6.00 Build 0)  -->
<svg version="1.1" id="Layer_1" xmlns="http://www.w3.org/2000/svg" xmlns:xlink="http://www.w3.org/1999/xlink" x="0px" y="0px"
	 viewBox="0 0 90 90" enable-background="new 0 0 90 90" xml:space="preserve">
<g>
	<g opacity="0.6">
		<g>
			<polygon fill="#6EA0D5" points="13.411,57.088 9.904,53.523 41.125,22.808 78.435,48.711 75.583,52.818 41.678,29.279 			"/>
		</g>
		<g>
			<circle fill="#FFFFFF" cx="11.657" cy="55.306" r="6.564"/>
			<path fill="#6EA0D5" d="M11.657,64c-4.954,0-9.02-3.846-9.063-8.8c-0.043-4.997,3.987-9.006,8.984-9.051
				c5.035,0,9.101,3.891,9.144,8.847C20.765,59.992,16.735,64,11.737,64H11.657z M11.658,51.241
				c-2.277,0.02-3.913,1.859-3.893,4.101C7.784,57.562,9,59.37,12,59.37v2.5l-0.135-2.5c2.241-0.02,3.962-1.859,3.943-4.101
				C15.788,53.049,13.879,51.241,11.658,51.241z"/>
		</g>
		<g>
			<circle fill="#FFFFFF" cx="41.402" cy="26.044" r="6.564"/>
			<path fill="#6EA0D5" d="M41.401,35c-4.954,0-9.02-3.977-9.063-8.931c-0.021-2.421,0.902-4.678,2.599-6.406
				s3.965-2.676,6.386-2.697c5.035,0,9.101,4.038,9.144,8.992c0.021,2.42-0.901,4.654-2.599,6.382
				C46.171,34.067,43.902,35,41.481,35H41.401z M41.403,21.979c-1.122,0.01-2.139,0.441-2.9,1.216s-1.375,1.799-1.365,2.884
				C37.157,28.301,39,30.108,41,30.108v2.5l0.237-2.5c1.086-0.009,2.203-0.441,2.964-1.215c0.761-0.774,1.224-1.799,1.215-2.884
				C45.397,23.787,43.624,21.979,41.403,21.979z"/>
		</g>
		<g>
			<circle fill="#FFFFFF" cx="77.62" cy="50.727" r="6.564"/>
			<path fill="#6EA0D5" d="M77.618,60c-4.953,0-9.019-4.135-9.062-9.089c-0.043-4.999,3.987-9.152,8.985-9.196
				c5.034,0,9.1,4.005,9.143,8.959c0.021,2.42-0.901,4.797-2.599,6.523C82.389,58.925,80.12,60,77.699,60H77.618z M77.621,46.663
				c-2.277,0.02-3.894,1.858-3.875,4.1C73.766,52.983,75,54.791,78,54.791v2.5l-0.154-2.5c1.086-0.009,2.007-0.44,2.768-1.215
				s1.127-1.799,1.117-2.884C81.712,48.47,79.842,46.663,77.621,46.663z"/>
		</g>
	</g>
	<g>
		<polygon fill="#FEC214" points="12.296,77.877 9.5,73.732 39.981,53.157 75.402,12.096 79.188,15.361 43.332,56.929 		"/>
	</g>
	<g>
		<circle fill="#FFFFFF" cx="77.295" cy="13.728" r="6.564"/>
		<path fill="#FEC214" d="M77.294,23c-4.954,0-9.02-4.135-9.062-9.089c-0.021-2.42,0.901-4.757,2.599-6.484s3.965-2.715,6.387-2.737
			c5.034,0,9.1,4.017,9.143,8.972c0.021,2.42-0.901,4.802-2.599,6.529S79.796,23,77.374,23H77.294z M77.297,9.664
			c-1.123,0.01-2.14,0.441-2.9,1.216s-1.322,1.798-1.312,2.884C73.104,15.985,75,17.792,77,17.793v2.5l0.184-2.5
			c1.086-0.009,2.176-0.441,2.937-1.215s1.212-1.798,1.202-2.884C81.303,11.471,79.518,9.664,77.297,9.664z"/>
	</g>
	<g>
		<circle fill="#FFFFFF" cx="41.656" cy="55.043" r="6.564"/>
		<path fill="#FEC214" d="M41.654,64c-4.954,0-9.019-3.977-9.062-8.931c-0.043-4.997,3.987-9.072,8.984-9.117
			c5.035,0,9.101,4.044,9.145,8.998c0.021,2.422-0.902,4.659-2.6,6.386C46.425,63.063,44.156,64,41.735,64H41.654z M41.658,50.979
			c-2.278,0.02-3.913,1.859-3.893,4.101C37.785,57.3,39,59.106,42,59.106v2.5l-0.136-2.5c2.242-0.02,3.962-1.858,3.943-4.1
			C45.788,52.786,43.878,50.979,41.658,50.979z"/>
	</g>
	<g>
		<circle fill="#FFFFFF" cx="11.842" cy="76.305" r="6.564"/>
		<path fill="#FEC214" d="M11.841,85c-4.954,0-9.02-3.847-9.063-8.801c-0.021-2.421,0.902-4.613,2.599-6.339
			c1.697-1.728,3.965-2.644,6.387-2.665c5.035,0,9.1,3.869,9.143,8.823C20.949,81.015,16.919,85,11.921,85H11.841z M11.844,72.241
			c-1.124,0.009-2.141,0.44-2.901,1.215s-1.095,1.799-1.086,2.885C7.876,78.562,10,80.369,12,80.369v2.5l-0.043-2.5
			c2.241-0.02,4.008-1.859,3.989-4.101C15.926,74.048,14.064,72.241,11.844,72.241z"/>
	</g>
</g>
</svg>
