<?xml version="1.0" encoding="utf-8"?>
<!-- Generator: Adobe Illustrator 18.1.0, SVG Export Plug-In . SVG Version: 6.00 Build 0)  -->
<svg version="1.1" id="Layer_1" xmlns="http://www.w3.org/2000/svg" xmlns:xlink="http://www.w3.org/1999/xlink" x="0px" y="0px"
	 viewBox="0 0 89 90" enable-background="new 0 0 89 90" xml:space="preserve">
<g>
	<ellipse fill="#E7E6DF" cx="44.814" cy="77.575" rx="44.185" ry="11.715"/>
</g>
<g>
	<g opacity="0.6">
		<g>
			<polygon fill="#6EA0D5" points="13.306,51.814 9.831,48.219 41.32,17.779 78.4,44.008 75.514,48.09 41.816,24.254 			"/>
		</g>
		<g>
			<circle fill="#FFFFFF" cx="11.568" cy="50.017" r="6.564"/>
			<path fill="#6EA0D5" d="M11.568,59.081c-4.998,0-9.064-4.066-9.064-9.064s4.066-9.064,9.064-9.064s9.064,4.066,9.064,9.064
				S16.566,59.081,11.568,59.081z M11.568,45.952c-2.241,0-4.064,1.823-4.064,4.064c0,2.241,1.823,4.064,4.064,4.064
				s4.064-1.823,4.064-4.064C15.633,47.776,13.81,45.952,11.568,45.952z"/>
		</g>
		<g>
			<circle fill="#FFFFFF" cx="41.568" cy="21.017" r="6.564"/>
			<path fill="#6EA0D5" d="M41.568,30.081c-4.998,0-9.064-4.066-9.064-9.064s4.066-9.064,9.064-9.064s9.064,4.066,9.064,9.064
				S46.566,30.081,41.568,30.081z M41.568,16.952c-2.241,0-4.064,1.823-4.064,4.064c0,2.241,1.823,4.064,4.064,4.064
				s4.064-1.823,4.064-4.064C45.633,18.776,43.81,16.952,41.568,16.952z"/>
		</g>
		<g>
			<circle fill="#FFFFFF" cx="77.568" cy="46.017" r="6.564"/>
			<path fill="#6EA0D5" d="M77.568,55.081c-4.998,0-9.064-4.066-9.064-9.064s4.066-9.064,9.064-9.064s9.064,4.066,9.064,9.064
				S82.566,55.081,77.568,55.081z M77.568,41.952c-2.241,0-4.064,1.823-4.064,4.064c0,2.241,1.823,4.064,4.064,4.064
				s4.064-1.823,4.064-4.064C81.633,43.776,79.81,41.952,77.568,41.952z"/>
		</g>
	</g>
	<g>
		<polygon fill="#FEC214" points="12.01,72.593 9.248,68.424 39.91,48.116 75.689,7.367 79.447,10.666 43.227,51.917 		"/>
	</g>
	<g>
		<circle fill="#FFFFFF" cx="77.568" cy="9.017" r="6.564"/>
		<path fill="#FEC214" d="M77.568,18.081c-4.998,0-9.064-4.066-9.064-9.064s4.066-9.064,9.064-9.064s9.064,4.066,9.064,9.064
			S82.566,18.081,77.568,18.081z M77.568,4.952c-2.241,0-4.064,1.823-4.064,4.064c0,2.241,1.823,4.064,4.064,4.064
			s4.064-1.823,4.064-4.064C81.633,6.776,79.81,4.952,77.568,4.952z"/>
	</g>
	<g>
		<circle fill="#FFFFFF" cx="41.568" cy="50.017" r="6.564"/>
		<path fill="#FEC214" d="M41.568,59.081c-4.998,0-9.064-4.066-9.064-9.064s4.066-9.064,9.064-9.064s9.064,4.066,9.064,9.064
			S46.566,59.081,41.568,59.081z M41.568,45.952c-2.241,0-4.064,1.823-4.064,4.064c0,2.241,1.823,4.064,4.064,4.064
			s4.064-1.823,4.064-4.064C45.633,47.776,43.81,45.952,41.568,45.952z"/>
	</g>
	<g>
		<circle fill="#FFFFFF" cx="11.568" cy="71.017" r="6.564"/>
		<path fill="#FEC214" d="M11.568,80.081c-4.998,0-9.064-4.066-9.064-9.064s4.066-9.064,9.064-9.064s9.064,4.066,9.064,9.064
			S16.566,80.081,11.568,80.081z M11.568,66.952c-2.241,0-4.064,1.823-4.064,4.064c0,2.241,1.823,4.064,4.064,4.064
			s4.064-1.823,4.064-4.064C15.633,68.776,13.81,66.952,11.568,66.952z"/>
	</g>
</g>
</svg>
