<?xml version="1.0" encoding="utf-8"?>
<!-- Generator: Adobe Illustrator 18.1.0, SVG Export Plug-In . SVG Version: 6.00 Build 0)  -->
<svg version="1.1" id="Layer_1" xmlns="http://www.w3.org/2000/svg" xmlns:xlink="http://www.w3.org/1999/xlink" x="0px" y="0px"
	 viewBox="0 0 95 95" enable-background="new 0 0 95 95" xml:space="preserve">
<g>
	<ellipse fill="#E7E6DF" cx="47.814" cy="82.575" rx="44.185" ry="11.715"/>
	<g>
		<path opacity="0.6" fill="#6EA0D5" d="M86.728,38.805c0.657-1.746,1.032-3.63,1.032-5.606c0-8.824-7.154-15.978-15.978-15.978
			c-1.494,0-2.933,0.221-4.303,0.604C65.864,8.411,57.688,1.242,47.814,1.242c-9.873,0-18.05,7.169-19.665,16.582
			c-1.369-0.383-2.809-0.604-4.303-0.604c-8.824,0-15.978,7.154-15.978,15.978c0,1.976,0.374,3.86,1.032,5.606
			c-5.335,2.589-9.021,8.041-9.021,14.367c0,8.824,7.154,15.978,15.978,15.978h3.995v-5.992h-3.995
			c-5.781,0-10.486-4.204-10.486-9.987c0-4.04,2.27-7.652,5.926-9.425l2.869-1.394c0.927-0.451,1.36-1.534,0.997-2.5l-1.121-2.982
			c-0.451-1.202-0.681-2.437-0.681-3.673c0-5.782,4.705-10.486,10.486-10.486c0.925,0,1.872,0.135,2.824,0.401l3.733,1.043
			c0.176,0.05,0.357,0.074,0.538,0.074c0.374,0,0.745-0.105,1.069-0.31c0.476-0.302,0.804-0.793,0.899-1.351l0.653-3.819
			c1.194-6.962,7.186-12.016,14.25-12.016c7.065,0,13.057,5.054,14.25,12.017l0.653,3.818c0.096,0.558,0.423,1.048,0.899,1.351
			c0.324,0.205,0.694,0.31,1.069,0.31c0.181,0,0.363-0.024,0.538-0.074l3.733-1.043c0.952-0.266,1.9-0.401,2.824-0.401
			c5.781,0,10.486,4.704,10.486,10.486c0,1.236-0.23,2.471-0.681,3.673l-1.121,2.982c-0.363,0.965,0.07,2.049,0.997,2.5l2.867,1.393
			c3.657,1.774,5.928,5.386,5.928,9.426c0,5.782-4.705,9.987-10.486,9.987h-3.995v5.992h3.995c8.824,0,15.978-7.154,15.978-15.978
			C95.749,46.846,92.063,41.394,86.728,38.805z"/>
		<g>
			<path fill="none" d="M47.888,32.7C40.73,32.7,36,38.025,36,45.183V53h15.395l8.254-8.499C59.308,37.769,54.765,32.7,47.888,32.7z
				"/>
			<path fill="#FEC214" d="M36,53v-7.817C36,38.025,40.73,32.7,47.888,32.7c6.876,0,11.42,4.919,11.761,11.651l6.787-6.74
				C63.475,30.338,56.309,25.21,47.96,25.21C36.928,25.21,28,34.155,28,45.183v7.989c-2,0-5,1.787-5,3.995V77.14
				c0,0.966,0.674,1.921,1.317,2.535L51.395,53H36z"/>
			<path fill="#FEC214" d="M67.787,81C69.995,81,71,79.348,71,77.14V57.167c0-2.208-1-3.995-3-3.995v-7.989
				c0-2.682-0.549-5.236-1.5-7.572l-6.637,6.74C59.877,44.627,60,44.901,60,45.183V53h-8.605L24.57,79.785
				C25.396,80.575,26.599,81,27.841,81H67.787z"/>
		</g>
	</g>
</g>
</svg>
