<?xml version="1.0" encoding="utf-8"?>
<!-- Generator: Adobe Illustrator 18.1.0, SVG Export Plug-In . SVG Version: 6.00 Build 0)  -->
<svg version="1.1" id="Layer_1" xmlns="http://www.w3.org/2000/svg" xmlns:xlink="http://www.w3.org/1999/xlink" x="0px" y="0px"
	 viewBox="0 0 89 89" enable-background="new 0 0 89 89" xml:space="preserve">
<ellipse fill="#E7E6DF" cx="44.814" cy="76.575" rx="44.185" ry="11.715"/>
<g>
	<path opacity="0.6" fill="#6EA0D5" d="M77,0.242H27.711c-2.243,0-4.062,1.819-4.062,4.063v6.499c0,2.243,1.819,4.063,4.062,4.063
		h38.943l4.117,20.581l4.116-20.581H77c2.243,0,4.062-1.82,4.062-4.063V4.305C81.062,2.061,79.243,0.242,77,0.242z"/>
	<path opacity="0.6" fill="#6EA0D5" d="M50.086,39.692c0-5.033,4.061-9.069,9.074-9.069c5.014,0,9.07,4.035,9.07,9.069
		c0,5.033-4.056,9.073-9.07,9.073C54.147,48.765,50.086,44.725,50.086,39.692z"/>
	<path opacity="0.6" fill="#6EA0D5" d="M47.444,66.476l2.711-2.948C50.183,66.929,50.233,71,50.324,74c0,0,4.922,2,8.834,2
		s10.697-2,10.697-2c1.512-10,0.836-17.996,0.836-17.996c0-2.512-5.669-4.517-11.531-4.517c-4.656,0-6.948,1.37-8.633,3.053
		l-6.585,7.206l2.292,2.509C46.836,64.904,47.238,65.671,47.444,66.476z"/>
	<g>
		<g>
			<path fill="#FEC214" d="M35.746,23.76H15.253c-2.791,0-5.062-2.271-5.062-5.062v-6.5c0-2.792,2.271-5.062,5.062-5.062h33.04
				c2.791,0,5.062,2.271,5.062,5.062v6.5c0,2.792-2.271,5.062-5.062,5.062h-3.974l-4.286,21.43L35.746,23.76z"/>
			<path fill="#FFFFFF" d="M48.293,8.136c2.245,0,4.063,1.819,4.063,4.063v6.499c0,2.243-1.818,4.062-4.063,4.062h-4.794
				l-3.466,17.332L36.566,22.76H15.253c-2.243,0-4.062-1.82-4.062-4.062v-6.499c0-2.243,1.819-4.063,4.062-4.063H48.293
				 M48.293,6.136h-33.04c-3.343,0-6.062,2.72-6.062,6.063v6.499c0,3.343,2.719,6.062,6.062,6.062h19.673l3.145,15.724l1.961,9.806
				l1.961-9.806l3.145-15.724h3.155c3.343,0,6.063-2.72,6.063-6.062v-6.499C54.356,8.855,51.636,6.136,48.293,6.136L48.293,6.136z"
				/>
		</g>
		<path fill="#FEC214" d="M34.638,39.692c0-5.033-4.061-9.069-9.075-9.069c-5.014,0-9.07,4.035-9.07,9.069
			c0,5.033,4.056,9.073,9.07,9.073C30.576,48.765,34.638,44.725,34.638,39.692z"/>
		<path fill="#FEC214" d="M34.399,74c0.091-3,0.141-7.071,0.169-10.472l5.719,6.198c0.022,0.022,0.042,0.046,0.061,0.067
			c1.085,1.103,2.858,1.156,4.005,0.099c1.162-1.077,1.238-2.896,0.159-4.063L34.195,54.543c-1.3-1.506-3.977-3.05-8.633-3.05
			c-5.863,0-11.531,1.999-11.531,4.511c0,0-0.676,7.996,0.837,17.996c0,0,3.913,2,8.781,2S34.399,74,34.399,74z"/>
	</g>
</g>
</svg>
