<?xml version="1.0" encoding="utf-8"?>
<!-- Generator: Adobe Illustrator 18.1.0, SVG Export Plug-In . SVG Version: 6.00 Build 0)  -->
<svg version="1.1" id="Layer_1" xmlns="http://www.w3.org/2000/svg" xmlns:xlink="http://www.w3.org/1999/xlink" x="0px" y="0px"
	 viewBox="0 0 261 88" enable-background="new 0 0 261 88" xml:space="preserve">
<rect x="0.201" y="0.287" fill="#FEC214" width="124.909" height="87.516"/>
<rect x="125.11" y="0.287" fill="#426BB3" width="135.89" height="87.516"/>
<g>
	<path fill="#FFFFFF" d="M162.174,33.839h4.367v7.392h8.484v-7.392h4.367v19.824h-4.367v-8.568h-8.484v8.568h-4.367V33.839z"/>
	<path fill="#FFFFFF" d="M183.425,33.839h7.672c1.008,0,1.964,0.098,2.87,0.294c0.905,0.196,1.698,0.523,2.38,0.98
		c0.681,0.458,1.222,1.074,1.624,1.848c0.401,0.774,0.602,1.741,0.602,2.898c0,1.4-0.363,2.59-1.092,3.57
		c-0.728,0.98-1.792,1.601-3.191,1.862l5.039,8.372h-5.235l-4.144-7.925h-2.156v7.925h-4.368V33.839z M187.793,42.043h2.576
		c0.392,0,0.807-0.014,1.246-0.042c0.438-0.028,0.834-0.112,1.189-0.252c0.354-0.14,0.648-0.359,0.882-0.658
		c0.233-0.298,0.351-0.718,0.351-1.26c0-0.504-0.104-0.905-0.309-1.204s-0.467-0.527-0.783-0.686
		c-0.318-0.159-0.682-0.266-1.093-0.322c-0.411-0.057-0.812-0.084-1.204-0.084h-2.855V42.043z"/>
	<path fill="#FFFFFF" d="M201.568,33.839h4.368v7.392h8.484v-7.392h4.368v19.824h-4.368v-8.568h-8.484v8.568h-4.368V33.839z"/>
	<path fill="#FFFFFF" d="M243.4,53.663h-12.012c-1.551,0-2.982-0.229-4.299-0.687c-1.316-0.457-2.449-1.124-3.402-2.002
		c-0.951-0.877-1.698-1.941-2.239-3.191c-0.542-1.251-0.812-2.679-0.812-4.284c0-1.493,0.274-2.865,0.825-4.116
		c0.551-1.25,1.302-2.324,2.255-3.22c0.951-0.896,2.071-1.592,3.359-2.086c1.288-0.495,2.669-0.742,4.145-0.742
		c1.474,0,2.855,0.252,4.144,0.756s2.407,1.204,3.36,2.1c0.951,0.896,1.703,1.965,2.254,3.206c0.55,1.242,0.826,2.609,0.826,4.103
		c0,0.709-0.08,1.4-0.238,2.071c-0.159,0.673-0.396,1.308-0.715,1.904c-0.316,0.598-0.728,1.135-1.231,1.61
		s-1.092,0.863-1.765,1.162v0.056h5.545V53.663z M225.172,43.499c0,0.858,0.158,1.661,0.477,2.407
		c0.316,0.747,0.751,1.396,1.302,1.946c0.55,0.551,1.19,0.985,1.918,1.302c0.728,0.318,1.512,0.477,2.353,0.477
		c0.84,0,1.623-0.158,2.352-0.477c0.729-0.316,1.367-0.751,1.918-1.302c0.551-0.55,0.984-1.199,1.302-1.946
		c0.317-0.746,0.476-1.549,0.476-2.407s-0.158-1.661-0.476-2.408c-0.317-0.746-0.751-1.396-1.302-1.946
		c-0.551-0.55-1.189-0.984-1.918-1.302s-1.512-0.476-2.352-0.476c-0.841,0-1.625,0.158-2.353,0.476s-1.368,0.752-1.918,1.302
		c-0.551,0.551-0.985,1.2-1.302,1.946C225.33,41.838,225.172,42.641,225.172,43.499z"/>
</g>
<g>
	<g>
		<path fill="#FFFFFF" d="M34.408,33.839h7.364c1.026,0,1.997,0.094,2.912,0.28c0.915,0.187,1.712,0.509,2.394,0.966
			c0.681,0.458,1.222,1.073,1.624,1.848c0.401,0.775,0.602,1.75,0.602,2.926c0,1.158-0.187,2.128-0.56,2.912
			c-0.374,0.784-0.887,1.41-1.54,1.876c-0.654,0.467-1.428,0.799-2.324,0.994c-0.896,0.196-1.867,0.294-2.912,0.294h-3.192v7.729
			h-4.368V33.839z M38.776,42.239h2.912c0.392,0,0.77-0.037,1.134-0.112c0.364-0.074,0.69-0.2,0.98-0.378
			c0.289-0.178,0.522-0.42,0.7-0.729c0.177-0.308,0.266-0.695,0.266-1.162c0-0.504-0.117-0.91-0.35-1.218
			c-0.233-0.308-0.532-0.546-0.896-0.714c-0.364-0.168-0.77-0.275-1.218-0.322c-0.448-0.046-0.878-0.069-1.288-0.069h-2.24V42.239z"
			/>
		<path fill="#FFFFFF" d="M61.848,38.683c-0.354-0.448-0.835-0.779-1.442-0.994c-0.607-0.214-1.181-0.321-1.722-0.321
			c-0.317,0-0.644,0.037-0.98,0.111c-0.336,0.075-0.653,0.192-0.952,0.351c-0.299,0.158-0.542,0.369-0.728,0.63
			c-0.187,0.262-0.28,0.579-0.28,0.952c0,0.598,0.224,1.055,0.672,1.372c0.448,0.317,1.013,0.588,1.694,0.812
			c0.681,0.224,1.414,0.448,2.198,0.672c0.784,0.224,1.517,0.542,2.198,0.952c0.681,0.411,1.246,0.962,1.694,1.652
			c0.448,0.69,0.672,1.614,0.672,2.771c0,1.102-0.206,2.062-0.616,2.885c-0.411,0.821-0.966,1.502-1.666,2.043
			c-0.7,0.542-1.512,0.943-2.436,1.205c-0.924,0.261-1.9,0.392-2.926,0.392c-1.288,0-2.482-0.196-3.584-0.588
			c-1.102-0.393-2.128-1.026-3.08-1.904l3.108-3.416c0.448,0.598,1.012,1.06,1.694,1.386c0.681,0.327,1.386,0.49,2.114,0.49
			c0.354,0,0.714-0.042,1.078-0.126c0.364-0.084,0.69-0.21,0.98-0.378s0.522-0.383,0.7-0.645c0.177-0.261,0.266-0.568,0.266-0.924
			c0-0.597-0.229-1.068-0.686-1.414c-0.458-0.345-1.032-0.639-1.722-0.882c-0.691-0.242-1.438-0.485-2.24-0.728
			c-0.803-0.243-1.55-0.569-2.24-0.98c-0.691-0.41-1.265-0.952-1.722-1.624c-0.458-0.672-0.686-1.558-0.686-2.66
			c0-1.064,0.21-1.998,0.63-2.8c0.42-0.802,0.98-1.474,1.68-2.016c0.7-0.541,1.507-0.947,2.422-1.218
			c0.914-0.27,1.857-0.406,2.828-0.406c1.12,0,2.203,0.159,3.248,0.476c1.045,0.318,1.988,0.85,2.828,1.596L61.848,38.683z"/>
	</g>
	<g>
		<path fill="#FFFFFF" d="M80.018,31.529c-3.091,0-5.904,1.194-8.052,3.143c1.803-1.296,3.995-2.062,6.361-2.062
			c6.146,0,11.124,5.119,11.124,11.434c0,6.316-4.978,11.434-11.124,11.434c-2.363,0-4.553-0.764-6.356-2.059
			c2.146,1.948,4.958,3.139,8.047,3.139c6.723,0,12.176-5.603,12.176-12.515C92.194,37.133,86.741,31.529,80.018,31.529z"/>
	</g>
</g>
<g>
	<rect x="125.11" y="26.795" fill="#FFFFFF" width="12.248" height="34.5"/>
	<rect x="113.983" y="37.921" fill="#FFFFFF" width="34.5" height="12.248"/>
</g>
<rect x="116.448" y="61.295" fill="#FEC214" width="20.909" height="26.508"/>
</svg>
