<?xml version="1.0" encoding="utf-8"?>
<!-- Generator: Adobe Illustrator 18.1.0, SVG Export Plug-In . SVG Version: 6.00 Build 0)  -->
<svg version="1.1" id="Layer_1" xmlns="http://www.w3.org/2000/svg" xmlns:xlink="http://www.w3.org/1999/xlink" x="0px" y="0px"
	 viewBox="0 0 91 85" enable-background="new 0 0 91 85" xml:space="preserve">
<g>
	<ellipse fill="#E7E6DF" cx="44.814" cy="72.575" rx="44.185" ry="11.715"/>
</g>
<g>
	<g opacity="0.6">
		<path fill="#6EA0D5" d="M58.511,24.329h-33.98v4.854h33.98V24.329z M58.511,34.038h-33.98v4.854h33.98V34.038z M58.511,14.621
			H24.506v4.854h34.005V14.621z M24.531,48.6h21.844v-4.854H24.531V48.6z M12.396,63.163h43.688L70.647,48.6V0.058H12.396V63.163z
			 M17.25,4.912h48.542v38.834H51.23v14.563H17.25V4.912z"/>
	</g>
	<g>
		<circle fill="#FFFFFF" cx="63.999" cy="48.643" r="26.703"/>
	</g>
	<g>
		<circle fill="#FEC214" cx="63.999" cy="48.643" r="23.736"/>
	</g>
	<g>
		<polygon fill="#FFFFFF" points="57.907,61.742 47.835,51.526 51.396,48.017 57.847,54.559 74.722,36.859 78.341,40.309 		"/>
	</g>
</g>
</svg>
