<?xml version="1.0" encoding="utf-8"?>
<!-- Generator: Adobe Illustrator 15.1.0, SVG Export Plug-In . SVG Version: 6.00 Build 0)  -->
<!DOCTYPE svg PUBLIC "-//W3C//DTD SVG 1.1//EN" "http://www.w3.org/Graphics/SVG/1.1/DTD/svg11.dtd">
<svg version="1.1" id="Layer_1" xmlns="http://www.w3.org/2000/svg" xmlns:xlink="http://www.w3.org/1999/xlink" x="0px" y="0px"
	 width="71px" height="18px" viewBox="0 0 71 18" enable-background="new 0 0 71 18" xml:space="preserve">
<polygon fill="#373434" points="0.483,0.799 4.273,0.799 4.273,7.213 11.635,7.213 11.635,0.799 15.425,0.799 15.425,18 11.635,18 
	11.635,10.565 4.273,10.565 4.273,18 0.483,18 "/>
<path fill="#373434" d="M18.109,0.799h6.658c3.523,0,6.487,1.215,6.487,5.224c0,2.405-1.288,4.275-3.718,4.712L31.909,18h-4.543
	l-3.595-6.875h-1.87V18h-3.792V0.799z M21.901,7.918h2.234c1.384,0,3.183-0.048,3.183-1.92c0-1.724-1.556-1.992-2.94-1.992h-2.477
	V7.918z"/>
<polygon fill="#E98022" points="33.854,0.799 37.645,0.799 37.645,7.213 45.004,7.213 45.004,0.799 48.795,0.799 48.795,18 
	45.004,18 45.004,10.565 37.645,10.565 37.645,18 33.854,18 "/>
<path fill="#E98022" d="M71,18H60.578c-5.369,0-9.328-3.279-9.328-8.818c0-5.199,4.08-8.82,9.182-8.82s9.184,3.645,9.184,8.82
	c0,2.43-1.068,4.811-3.424,5.855v0.047H71V18z M60.432,14.503c2.893,0,5.249-2.358,5.249-5.321c0-2.964-2.356-5.32-5.249-5.32
	c-2.889,0-5.247,2.356-5.247,5.32C55.185,12.145,57.543,14.503,60.432,14.503"/>
</svg>
